<mxfile host="app.diagrams.net" agent="Mozilla/5.0 (Windows NT 10.0; Win64; x64) AppleWebKit/537.36 (KHTML, like Gecko) Chrome/133.0.0.0 Safari/537.36" version="26.1.0">
  <diagram name="第 1 页" id="wnoVNZqCKo41JzHGru8K">
    <mxGraphModel dx="910" dy="490" grid="1" gridSize="10" guides="1" tooltips="1" connect="1" arrows="1" fold="1" page="1" pageScale="1" pageWidth="827" pageHeight="1169" math="0" shadow="0">
      <root>
        <mxCell id="0" />
        <mxCell id="1" parent="0" />
        <mxCell id="X-y8eWS_1HgyR7MCwbna-1" value="" style="rounded=0;whiteSpace=wrap;html=1;fillColor=#4175B1;strokeColor=none;" vertex="1" parent="1">
          <mxGeometry x="130" y="240" width="180" height="220" as="geometry" />
        </mxCell>
        <mxCell id="X-y8eWS_1HgyR7MCwbna-2" value="用户" style="shape=umlActor;verticalLabelPosition=bottom;verticalAlign=top;html=1;outlineConnect=0;" vertex="1" parent="1">
          <mxGeometry x="147.5" y="100" width="30" height="60" as="geometry" />
        </mxCell>
        <mxCell id="X-y8eWS_1HgyR7MCwbna-3" value="客户端编辑器" style="text;html=1;align=center;verticalAlign=middle;whiteSpace=wrap;rounded=0;fontStyle=1;fontSize=13;strokeColor=none;fontColor=#FFFFFF;" vertex="1" parent="1">
          <mxGeometry x="175" y="250" width="90" height="30" as="geometry" />
        </mxCell>
        <mxCell id="X-y8eWS_1HgyR7MCwbna-4" value="" style="rounded=0;whiteSpace=wrap;html=1;fillColor=#4175B1;strokeColor=none;" vertex="1" parent="1">
          <mxGeometry x="470" y="240" width="210" height="220" as="geometry" />
        </mxCell>
        <mxCell id="X-y8eWS_1HgyR7MCwbna-5" value="CSDB" style="text;html=1;align=center;verticalAlign=middle;whiteSpace=wrap;rounded=0;fontStyle=1;fontSize=13;strokeColor=none;fontColor=#FFFFFF;" vertex="1" parent="1">
          <mxGeometry x="510" y="260" width="90" height="30" as="geometry" />
        </mxCell>
        <mxCell id="X-y8eWS_1HgyR7MCwbna-7" value="" style="shape=flexArrow;endArrow=classic;startArrow=classic;html=1;rounded=0;width=6;startSize=3.64;endSize=3.64;endWidth=17.387755102040817;startWidth=17.387755102040817;fontStyle=1;fontSize=13;strokeColor=none;fillColor=#0058AC;" edge="1" parent="1">
          <mxGeometry width="100" height="100" relative="1" as="geometry">
            <mxPoint x="460" y="300" as="sourcePoint" />
            <mxPoint x="320" y="300" as="targetPoint" />
          </mxGeometry>
        </mxCell>
        <mxCell id="X-y8eWS_1HgyR7MCwbna-8" value="DM XML" style="text;html=1;align=center;verticalAlign=middle;resizable=0;points=[];autosize=1;strokeColor=none;fillColor=none;fontStyle=1;fontSize=13;" vertex="1" parent="1">
          <mxGeometry x="355" y="260" width="70" height="30" as="geometry" />
        </mxCell>
        <mxCell id="X-y8eWS_1HgyR7MCwbna-9" value="接口" style="rounded=1;whiteSpace=wrap;html=1;fontStyle=1;fontSize=13;strokeColor=none;" vertex="1" parent="1">
          <mxGeometry x="147.5" y="300" width="145" height="40" as="geometry" />
        </mxCell>
        <mxCell id="X-y8eWS_1HgyR7MCwbna-10" value="插件" style="rounded=1;whiteSpace=wrap;html=1;fontStyle=1;fontSize=13;strokeColor=none;" vertex="1" parent="1">
          <mxGeometry x="147.5" y="360" width="145" height="40" as="geometry" />
        </mxCell>
        <mxCell id="X-y8eWS_1HgyR7MCwbna-11" value="编辑器&lt;div&gt;接口&lt;/div&gt;" style="rounded=1;whiteSpace=wrap;html=1;fontStyle=1;fontSize=13;strokeColor=none;" vertex="1" parent="1">
          <mxGeometry x="482.5" y="290" width="57.5" height="130" as="geometry" />
        </mxCell>
        <mxCell id="X-y8eWS_1HgyR7MCwbna-12" value="数据管理" style="rounded=1;whiteSpace=wrap;html=1;fontStyle=1;fontSize=13;strokeColor=none;" vertex="1" parent="1">
          <mxGeometry x="570" y="290" width="90" height="130" as="geometry" />
        </mxCell>
        <mxCell id="X-y8eWS_1HgyR7MCwbna-13" value="" style="shape=flexArrow;endArrow=classic;startArrow=classic;html=1;rounded=0;width=6;startSize=3.64;endSize=3.64;endWidth=17.387755102040817;startWidth=17.387755102040817;fontStyle=1;fontSize=13;strokeColor=none;fillColor=#0058AC;" edge="1" parent="1">
          <mxGeometry width="100" height="100" relative="1" as="geometry">
            <mxPoint x="460" y="380" as="sourcePoint" />
            <mxPoint x="320" y="380" as="targetPoint" />
          </mxGeometry>
        </mxCell>
        <mxCell id="X-y8eWS_1HgyR7MCwbna-14" value="DM XML" style="text;html=1;align=center;verticalAlign=middle;resizable=0;points=[];autosize=1;strokeColor=none;fillColor=none;fontStyle=1;fontSize=13;" vertex="1" parent="1">
          <mxGeometry x="355" y="340" width="70" height="30" as="geometry" />
        </mxCell>
        <mxCell id="X-y8eWS_1HgyR7MCwbna-17" value="负责人" style="shape=umlActor;verticalLabelPosition=bottom;verticalAlign=top;html=1;outlineConnect=0;" vertex="1" parent="1">
          <mxGeometry x="610" y="110" width="30" height="60" as="geometry" />
        </mxCell>
      </root>
    </mxGraphModel>
  </diagram>
</mxfile>
